<?xml version="1.0" standalone="no"?>
<!DOCTYPE svg PUBLIC "-//W3C//DTD SVG 20010904//EN"
 "http://www.w3.org/TR/2001/REC-SVG-20010904/DTD/svg10.dtd">
<svg version="1.0" xmlns="http://www.w3.org/2000/svg"
 width="992.000000pt" height="728.000000pt" viewBox="0 0 992.000000 728.000000"
 preserveAspectRatio="xMidYMid meet">
<metadata>
Created by potrace 1.15, written by Peter Selinger 2001-2017
</metadata>
<g transform="translate(0.000000,728.000000) scale(0.100000,-0.100000)"
fill="#000000" stroke="none">
<path d="M73 7193 c-13 -2 -32 -16 -43 -30 -20 -26 -20 -29 -20 -3535 l0
-3509 25 -24 24 -25 344 0 c392 0 382 -2 398 80 4 25 8 685 9 1467 l0 1422 24
28 24 28 1857 0 1857 0 24 -28 24 -28 0 -1460 0 -1460 25 -24 24 -25 346 0
c229 0 353 4 367 11 49 26 48 6 48 1108 l0 1029 361 388 c515 554 525 564 565
564 20 0 42 -9 57 -22 14 -13 597 -698 1295 -1524 699 -826 1285 -1513 1302
-1528 l32 -26 414 0 c401 0 415 1 434 20 25 25 25 47 1 85 -11 17 -683 820
-1495 1785 -1080 1285 -1478 1763 -1482 1787 -3 17 -3 41 1 52 3 12 674 758
1491 1657 843 930 1487 1647 1491 1662 3 14 1 32 -4 41 -24 39 -46 41 -449 41
-387 0 -391 0 -432 -22 -27 -16 -565 -596 -1712 -1848 -920 -1004 -1702 -1855
-1738 -1892 -66 -67 -95 -81 -120 -56 -9 9 -12 422 -13 1793 -1 979 -4 1824
-8 1877 -5 83 -9 101 -29 120 l-23 23 -350 0 -351 0 -24 -28 -24 -28 0 -1630
0 -1630 -25 -24 -24 -25 -1856 0 -1856 0 -24 25 -25 24 0 1593 c-1 876 -5
1613 -9 1637 -5 24 -18 53 -30 65 -21 21 -29 21 -349 22 -180 1 -337 0 -349
-3z"/>
</g>
</svg>
